<?xml version="1.0" standalone="no"?>
<!DOCTYPE svg PUBLIC "-//W3C//DTD SVG 20010904//EN"
 "http://www.w3.org/TR/2001/REC-SVG-20010904/DTD/svg10.dtd">
<svg version="1.0" xmlns="http://www.w3.org/2000/svg"
 width="1024.000000pt" height="1024.000000pt" viewBox="0 0 1024.000000 1024.000000"
 preserveAspectRatio="xMidYMid meet">
<metadata>
Created by potrace 1.14, written by Peter Selinger 2001-2017
</metadata>
<g transform="translate(0.000000,1024.000000) scale(0.100000,-0.100000)"
fill="#000000" stroke="none">
<path d="M4909 9866 c-2 -2 -40 -7 -84 -10 -308 -26 -670 -115 -948 -233 -101
-43 -340 -167 -432 -224 -111 -69 -330 -230 -415 -306 -467 -413 -794 -942
-939 -1519 -30 -117 -34 -138 -46 -219 -3 -23 -7 -50 -9 -60 -3 -18 -12 -99
-22 -215 -5 -60 -5 -382 0 -445 18 -198 19 -210 47 -350 27 -133 25 -125 55
-229 28 -95 65 -199 89 -253 8 -17 15 -34 15 -38 0 -27 173 -340 255 -460 30
-44 160 -217 182 -240 10 -11 45 -52 78 -90 33 -39 134 -145 225 -236 230
-231 298 -306 407 -444 63 -80 213 -298 252 -365 139 -241 239 -484 290 -700
20 -84 23 -97 37 -215 4 -33 7 -200 8 -371 l1 -311 -32 -24 c-17 -13 -42 -42
-55 -64 -21 -37 -23 -52 -23 -195 0 -180 10 -211 85 -268 41 -32 44 -37 41
-75 -2 -23 -4 -80 -5 -127 -1 -47 -4 -90 -7 -95 -7 -16 -2 -497 5 -530 4 -16
11 -48 16 -70 31 -140 103 -206 250 -230 25 -4 54 -9 65 -11 39 -7 92 -14 150
-19 206 -17 185 -11 237 -70 75 -83 186 -147 300 -172 43 -9 233 -9 276 0 115
25 225 89 300 173 l48 54 75 5 c135 10 253 24 329 41 14 3 38 8 55 11 41 7 96
36 121 65 42 45 77 134 91 226 6 41 5 450 -2 665 -4 136 -4 138 19 147 26 10
73 62 89 99 16 40 16 298 0 346 -12 35 -44 77 -85 111 -10 8 -13 80 -12 330 1
175 4 342 8 369 14 101 18 121 32 185 66 295 225 637 437 938 132 186 257 329
514 587 194 195 291 304 408 460 223 298 379 617 464 950 23 93 58 284 66 368
3 31 8 83 11 114 12 119 6 450 -11 578 -2 17 -7 50 -10 75 -3 25 -7 56 -9 70
-3 14 -10 54 -16 90 -46 261 -159 565 -317 848 -199 356 -455 650 -819 941
-59 47 -235 164 -329 218 -359 208 -798 354 -1195 398 -30 3 -68 8 -85 11 -36
6 -520 15 -526 10z"/>
</g>
</svg>
